# xmcd
#
# Track frame offsets:
#	150
#	16979
#	24878
#	35409
#	50720
#	63257
#	73739
#	85071
#	97685
#	106088
#	114743
#	129444
#	140994
#	151187
#	158771
#	174835
#	186235
#	199125
#	211895
#	222207
#	234757
#	248791
#	260560
#	271314
#	282941
#	292222
#	304859
#	322973
#
# Disc length: 4496 seconds
#
# Revision: 1
# Processed by: cddbd v1.5.2PL0 Copyright (c) Steve Scherf et al.
# Submitted via: audiograbber 1.83.01
#
DISCID=8b118e1c
DTITLE=Various Artist - OLD WEST - Legendary Country Music
DYEAR=2000
DGENRE=Country
TTITLE0=Johnny Cash - Ghost Riders in the Sky
TTITLE1=Roger Miller - Do Wacka Do
TTITLE2=Hank Thompson - Walk up Irene
TTITLE3=Eddie Rabbit - Pour me another Tequila
TTITLE4=Sammy Davis Jr. - What i've got in mind
TTITLE5=Sue Thompson - Norman
TTITLE6=Don Gibson - Oh Lonesome Me
TTITLE7=Leroy van Dyke - The Auctioneer
TTITLE8=Bob Lumas - Think about living
TTITLE9=Roger Miller - You're Part of me
TTITLE10=Johnny Horton - Sink the Bismark
TTITLE11=Jody Miller - Do what you do well
TTITLE12=Swander-Hershey - Deep in the heart of Texas
TTITLE13=Ch.Exwell-J.Breake - Tiger Baby
TTITLE14=Billie Jo Spears - Blanket on the ground
TTITLE15=Johnny Horton - Battle of New Orleans
TTITLE16=Johnny Horton - North to Alaska
TTITLE17=Nancy Sinatra-Lee Hazlewood - Jackson
TTITLE18=Johnny Russell - Jumbalaya
TTITLE19=Waylon Jennings - I'm a ramblin man
TTITLE20=Johnny Cash - Orange Blossom Special
TTITLE21=Johnny Cash - Ring of Fire
TTITLE22=John D. Loudermilk - Blue Train
TTITLE23=The Full Moon Guitars - Achy Breaky Heart
TTITLE24=Roger Miller - Chug a Lug
TTITLE25=Larrry Williams - Let your Love flow
TTITLE26=David Bellamy - Old Hippie
TTITLE27=David Bellamy - If i said you had a beautiful body
EXTD=
EXTT0=
EXTT1=
EXTT2=
EXTT3=
EXTT4=
EXTT5=
EXTT6=
EXTT7=
EXTT8=
EXTT9=
EXTT10=
EXTT11=
EXTT12=
EXTT13=
EXTT14=
EXTT15=
EXTT16=
EXTT17=
EXTT18=
EXTT19=
EXTT20=
EXTT21=
EXTT22=
EXTT23=
EXTT24=
EXTT25=
EXTT26=
EXTT27=
PLAYORDER=
